# xmcd
#
# Track frame offsets: 
#        150
#        21070
#        44097
#        55341
#        86785
#        102759
#        118942
#        143824
#        155239
#        178861
#
# Disc length: 3453 seconds
#
# Revision: 0
# Processed by: cddbd v1.5.1PL2 Copyright (c) Steve Scherf et al.
# Submitted via: ExactAudioCopy v0.95a5
#
DISCID=910d7b0a
DTITLE=Javier Trejo - Javier Trejo
DYEAR=2006
DGENRE=Blues
TTITLE0=Dance of the Mountain Stream
TTITLE1=Brand New Day
TTITLE2=Just To See Her
TTITLE3=Swimmin' Boy
TTITLE4=And in my Bourbon Down
TTITLE5=Serious
TTITLE6=Skip to My Luke
TTITLE7=Magic Tree
TTITLE8=Not So Far Away
TTITLE9=Victorious Bull
EXTD=
EXTT0=
EXTT1=
EXTT2=
EXTT3=
EXTT4=
EXTT5=
EXTT6=
EXTT7=
EXTT8=
EXTT9=
PLAYORDER=
